<?xml version="1.0" ?><!DOCTYPE svg  PUBLIC '-//W3C//DTD SVG 1.1//EN'  'http://www.w3.org/Graphics/SVG/1.1/DTD/svg11.dtd'><svg xmlns="http://www.w3.org/2000/svg" xmlns:xlink="http://www.w3.org/1999/xlink" xml:space="preserve" width="2.83333in" height="2.83333in" version="1.1" style="shape-rendering:geometricPrecision; text-rendering:geometricPrecision; image-rendering:optimizeQuality; fill-rule:evenodd; clip-rule:evenodd" viewBox="0 0 2833 2833"><defs><style type="text/css">
   <![CDATA[
    .fil0 {fill:#061420}
    .fil1 {fill:#FFD80D}
    .fil2 {fill:white}
   ]]>
  </style></defs><g id="Layer_x0020_1"><circle class="fil0" cx="1417" cy="1417" r="1417"/><g id="_426714720"><path class="fil1" d="M810 2006l0 -1375c0,-37 30,-68 68,-68l181 0c-2,7 -3,13 -3,20l0 1351 -98 0c-60,0 -113,28 -148,72z"/><path class="fil1" d="M1096 1934l0 -1351c0,-11 9,-20 20,-20l887 0c11,0 20,9 20,20l0 1354c-6,-2 -13,-3 -20,-3l-907 0zm621 -437c-8,0 -16,-5 -19,-14l-51 -146 -175 0 -51 146c-9,25 -46,12 -38,-13l158 -453c6,-18 31,-18 37,0l158 453c5,13 -5,27 -19,27zm64 319l-442 0c-17,0 -30,-13 -30,-30l0 -88c0,-16 13,-30 30,-30l442 0c16,0 29,14 29,30l0 88c0,17 -13,30 -29,30zm-432 -40l421 0 0 -68 -421 0 0 68zm441 -942l-461 0c-26,0 -26,-40 0,-40l461 0c26,0 26,40 0,40zm0 -109l-461 0c-26,0 -26,-40 0,-40l461 0c26,0 26,40 0,40zm-157 572l-73 -212 -74 212 147 0z"/><path class="fil2" d="M2003 2270l-1045 0c-81,0 -148,-66 -148,-148 0,-82 67,-148 148,-148l1045 0c11,0 20,9 20,20l0 108 -625 0c-27,0 -27,40 0,40l625 0 0 108c0,11 -9,20 -20,20z"/></g></g></svg>